<svg xmlns="http://www.w3.org/2000/svg" width="30" height="30" fill="none" viewBox="0 0 30 30"><g fill="#fff" fill-rule="evenodd" clip-path="url(#clip0_122_2190)" clip-rule="evenodd"><path d="M0 15C0 6.703 6.703 0 15 0s15 6.703 15 15-6.703 15-15 15h-1.219v-.047C6.094 29.343 0 22.875 0 15m15.375 12.563c6.75-.188 12.188-5.766 12.188-12.563 0-6.938-5.625-12.563-12.563-12.563S2.437 8.064 2.437 15 8.064 27.563 15 27.563Z"/><path d="M8.906 4.031a2.3 2.3 0 0 1-.516-.188l.797-2.296c.094.047.188.047.376.094.28.093.609.187.796.28.047 0 .094.048.188.048.328.14.703.281 1.031.422l.047.046c.14.094.375.188.563.282l.28.14h.094c.047.047.188.094.329.188h.047s.046 0 .046.047c0 0 .047 0 .047.047h.094s.047 0 .047.047c.094.047.234.141.328.188.14.094.328.188.469.281.14.094.328.235.469.281l.046.047c.094.047.188.094.235.141.094.047.187.14.281.188.047.046.094.046.094.093.047.047.094.047.14.094.047.047.047.047.094.047h.141A18.3 18.3 0 0 1 19.03 8.11a17.8 17.8 0 0 1 2.625 4.922c1.828 5.156 1.313 11.062-1.593 15.75L18 27.515c2.484-4.032 2.953-9.188 1.36-13.688a14.8 14.8 0 0 0-2.297-4.219 16.1 16.1 0 0 0-3.094-3.094c-.047-.046-.14-.093-.188-.14-.047-.047-.094-.094-.14-.094l-.094-.093c-.094-.047-.14-.141-.235-.188-.046-.047-.093-.047-.093-.047h-.047v.14A.36.36 0 0 0 12.984 6a1 1 0 0 0-.281-.188l-.047-.045-.047-.047s-.046 0-.093-.047-.141-.094-.235-.14A1.5 1.5 0 0 1 12 5.343c-.047 0-.094-.047-.094-.047l-.047-.047c-.046 0-.046-.047-.093-.047 0 0-.047-.047-.094-.047-.047-.047-.094-.047-.188-.093l-.28-.141c-.188-.094-.376-.188-.563-.234l-.047-.047c-.235-.094-.516-.188-.797-.329-.14-.046-.188-.093-.281-.093a2.3 2.3 0 0 0-.61-.188"/><path d="M14.063 9.797c3.656-.656 7.078-2.719 9.375-5.672l1.921 1.5c-2.718 3.422-6.609 5.813-10.875 6.563a18.5 18.5 0 0 1-6.422 0 17.8 17.8 0 0 1-6.047-2.25l1.266-2.063c1.594.938 3.375 1.64 5.203 1.969 1.829.281 3.704.281 5.579-.047"/><path d="M7.547 27.328c2.062-10.594 12.89-16.453 21.703-14.062l-.656 2.343c-7.5-2.062-16.875 3-18.703 12.188Z"/></g><defs><clipPath id="clip0_122_2190"><path fill="#fff" d="M0 0h30v30H0Z"/></clipPath></defs></svg>